# xmcd CD database file
#
# Track frame offsets:
#	150
#	17269
#	31439
#	48172
#	61633
#	78195
#	90512
#	103015
#	121080
#	130505
#
# Disc length: 1955 seconds
#
# Revision: 2
# Processed by: cddbd v1.5.2PL0 Copyright (c) Steve Scherf et al.
# Submitted via: CDex 2.21
#
DISCID=6207a10a
DTITLE=Charley Pride - Just For The Love Of It
DYEAR=2009
DGENRE=Country
TTITLE0=Just For The Love Of It
TTITLE1=For Today
TTITLE2=I've Been There
TTITLE3=Burnin' Down The Town
TTITLE4=The Hunger
TTITLE5=I Came Straight To You
TTITLE6=Lone Star Lonely
TTITLE7=Old Heart (Rest In Pieces)
TTITLE8=I'm Gonna Change Everything
TTITLE9=Walls
EXTD=YEAR: 2009
EXTT0=
EXTT1=
EXTT2=
EXTT3=
EXTT4=
EXTT5=
EXTT6=
EXTT7=
EXTT8=
EXTT9=
PLAYORDER=
